<svg width="163" height="32" viewBox="0 0 163 32" fill="none" xmlns="http://www.w3.org/2000/svg">
<g clip-path="url(#clip0_1_1550)">
<path fill-rule="evenodd" clip-rule="evenodd" d="M21.0923 9.34824C19.7767 8.4692 18.2299 8 16.6477 8V0C19.8122 0 22.9056 0.938384 25.5368 2.69649C28.168 4.45458 30.2187 6.95345 31.4298 9.87704C32.6407 12.8006 32.9576 16.0178 32.3403 19.1214C31.7229 22.2251 30.1991 25.0761 27.9614 27.3137C25.7238 29.5514 22.8728 31.0752 19.7691 31.6926C16.6655 32.3099 13.4483 31.993 10.5247 30.7821C7.60115 29.571 5.10229 27.5203 3.34419 24.8891C1.58609 22.2579 0.647705 19.1645 0.647705 16H8.64771C8.64771 17.5822 9.11691 19.129 9.99594 20.4446C10.875 21.7602 12.1244 22.7855 13.5863 23.391C15.048 23.9966 16.6566 24.155 18.2084 23.8462C19.7603 23.5376 21.1857 22.7757 22.3046 21.6569C23.4234 20.538 24.1853 19.1126 24.4939 17.5607C24.8027 16.0089 24.6443 14.4003 24.0387 12.9386C23.4332 11.4767 22.4079 10.2273 21.0923 9.34824Z" fill="white" fill-opacity="0.64"/>
<path fill-rule="evenodd" clip-rule="evenodd" d="M8.6477 4.22794e-06C8.6477 1.05058 8.44078 2.09087 8.03874 3.06148C7.6367 4.03207 7.04743 4.91399 6.30456 5.65686C5.56169 6.39973 4.67978 6.989 3.70917 7.39104C2.73856 7.79308 1.69828 8 0.647705 8L0.647705 16C2.74885 16 4.82943 15.5862 6.77064 14.7821C8.71186 13.978 10.4757 12.7994 11.9614 11.3137C13.4471 9.828 14.6257 8.06416 15.4298 6.12294C16.2339 4.18172 16.6477 2.10115 16.6477 0L8.6477 4.22794e-06Z" fill="white" fill-opacity="0.64"/>
<path d="M101.143 11.562H97.2614V23.8919H101.143V11.562Z" fill="white" fill-opacity="0.64"/>
<path d="M97.6934 9.25326C98.099 9.65918 98.6062 9.86214 99.215 9.86214C99.8238 9.86214 100.323 9.65918 100.712 9.25326C101.101 8.83046 101.296 8.32302 101.296 7.73106C101.296 7.12219 101.101 6.61477 100.712 6.20886C100.323 5.80293 99.8238 5.59998 99.215 5.59998C98.6062 5.59998 98.099 5.80293 97.6934 6.20886C97.3038 6.61477 97.1094 7.12219 97.1094 7.73106C97.1094 8.32302 97.3038 8.83046 97.6934 9.25326Z" fill="white" fill-opacity="0.64"/>
<path d="M41.5726 23.8919V5.98059H45.5558V20.3908H53.4966V23.8919H41.5726Z" fill="white" fill-opacity="0.64"/>
<path fill-rule="evenodd" clip-rule="evenodd" d="M60.6697 24.1708C59.4012 24.1708 58.2511 23.8918 57.2193 23.3336C56.2045 22.7586 55.4012 21.9806 54.8092 20.9996C54.2173 20.0186 53.9213 18.9192 53.9213 17.7015C53.9213 16.4837 54.2173 15.3928 54.8092 14.4288C55.4012 13.4647 56.2045 12.7036 57.2193 12.1455C58.2341 11.5704 59.3843 11.2828 60.6697 11.2828C61.9551 11.2828 63.1052 11.562 64.12 12.12C65.1348 12.6782 65.9382 13.4478 66.5301 14.4288C67.1221 15.3928 67.4181 16.4837 67.4181 17.7015C67.4181 18.9192 67.1221 20.0186 66.5301 20.9996C65.9382 21.9806 65.1348 22.7586 64.12 23.3336C63.1052 23.8918 61.9551 24.1708 60.6697 24.1708ZM60.6697 20.6444C61.2278 20.6444 61.7183 20.526 62.1412 20.2892C62.564 20.0356 62.8853 19.6888 63.1052 19.2491C63.342 18.7924 63.4604 18.2765 63.4604 17.7015C63.4604 17.1264 63.342 16.6275 63.1052 16.2047C62.8684 15.7649 62.5386 15.4267 62.1157 15.1899C61.7098 14.9361 61.2278 14.8093 60.6697 14.8093C60.1285 14.8093 59.6465 14.9361 59.2236 15.1899C58.8008 15.4267 58.4709 15.7649 58.2341 16.2047C57.9973 16.6444 57.879 17.1518 57.879 17.7268C57.879 18.285 57.9973 18.7924 58.2341 19.2491C58.4709 19.6888 58.8008 20.0356 59.2236 20.2892C59.6465 20.526 60.1285 20.6444 60.6697 20.6444Z" fill="white" fill-opacity="0.64"/>
<path fill-rule="evenodd" clip-rule="evenodd" d="M70.4923 28.7121C71.5239 29.1857 72.7163 29.4225 74.0695 29.4225C75.3887 29.4225 76.5642 29.1603 77.5959 28.636C78.6276 28.1117 79.4394 27.3845 80.0314 26.4542C80.6233 25.524 80.9197 24.4246 80.9197 23.1561V11.562H77.1138V12.3904C76.8307 12.1521 76.5093 11.9521 76.1498 11.7903C75.4901 11.4689 74.7375 11.3082 73.8919 11.3082C72.7587 11.3082 71.7523 11.5789 70.8728 12.1201C69.9932 12.6444 69.2999 13.3717 68.7924 14.3019C68.285 15.2153 68.0314 16.2469 68.0314 17.3971C68.0314 18.5303 68.285 19.562 68.7924 20.4922C69.2999 21.4225 69.9932 22.1582 70.8728 22.6994C71.7523 23.2406 72.7587 23.5113 73.8919 23.5113C74.7206 23.5113 75.4732 23.3506 76.1498 23.0293C76.4775 22.8736 76.7735 22.6901 77.0377 22.4789V23.2576C77.0377 24.1201 76.7587 24.7882 76.2005 25.2618C75.6593 25.7354 74.9067 25.9721 73.9426 25.9721C73.1646 25.9721 72.4965 25.8369 71.9383 25.5662C71.3971 25.2957 70.9066 24.8981 70.4668 24.3738L68.0821 26.7586C68.674 27.6043 69.4775 28.2555 70.4923 28.7121ZM76.0229 19.7057C75.6339 19.9425 75.1688 20.0609 74.6275 20.0609C74.0863 20.0609 73.6127 19.9425 73.2068 19.7057C72.8178 19.4689 72.5134 19.1476 72.2935 18.7417C72.0736 18.3189 71.9637 17.8706 71.9637 17.3971C71.9637 16.8897 72.0736 16.433 72.2935 16.0271C72.5134 15.6212 72.8263 15.2998 73.2322 15.063C73.6381 14.8262 74.1032 14.7078 74.6275 14.7078C75.1688 14.7078 75.6339 14.8262 76.0229 15.063C76.4288 15.2998 76.7332 15.6212 76.9363 16.0271C77.1561 16.433 77.266 16.8897 77.266 17.3971C77.266 17.9045 77.1561 18.3611 76.9363 18.767C76.7332 19.1561 76.4288 19.4689 76.0229 19.7057Z" fill="white" fill-opacity="0.64"/>
<path fill-rule="evenodd" clip-rule="evenodd" d="M89.0885 24.1708C87.8197 24.1708 86.6693 23.8918 85.6381 23.3336C84.6229 22.7586 83.8197 21.9806 83.2277 20.9996C82.6357 20.0186 82.3397 18.9192 82.3397 17.7015C82.3397 16.4837 82.6357 15.3928 83.2277 14.4288C83.8197 13.4647 84.6229 12.7036 85.6381 12.1455C86.6525 11.5704 87.8029 11.2828 89.0885 11.2828C90.3733 11.2828 91.5237 11.562 92.5381 12.12C93.5533 12.6782 94.3565 13.4478 94.9485 14.4288C95.5405 15.3928 95.8365 16.4837 95.8365 17.7015C95.8365 18.9192 95.5405 20.0186 94.9485 20.9996C94.3565 21.9806 93.5533 22.7586 92.5381 23.3336C91.5237 23.8918 90.3733 24.1708 89.0885 24.1708ZM89.0885 20.6444C89.6461 20.6444 90.1365 20.526 90.5597 20.2892C90.9821 20.0356 91.3037 19.6888 91.5237 19.2491C91.7605 18.7924 91.8789 18.2765 91.8789 17.7015C91.8789 17.1264 91.7605 16.6275 91.5237 16.2047C91.2869 15.7649 90.9573 15.4267 90.5341 15.1899C90.1285 14.9361 89.6461 14.8093 89.0885 14.8093C88.5469 14.8093 88.0645 14.9361 87.6421 15.1899C87.2189 15.4267 86.8893 15.7649 86.6525 16.2047C86.4157 16.6444 86.2973 17.1518 86.2973 17.7268C86.2973 18.285 86.4157 18.7924 86.6525 19.2491C86.8893 19.6888 87.2189 20.0356 87.6421 20.2892C88.0645 20.526 88.5469 20.6444 89.0885 20.6444Z" fill="white" fill-opacity="0.64"/>
<path fill-rule="evenodd" clip-rule="evenodd" d="M110.472 24.1455C109.644 24.1455 108.883 23.9849 108.189 23.6635C107.824 23.4944 107.495 23.2925 107.2 23.0577V29.0927H103.369V11.562H107.251V12.4129C107.532 12.1826 107.845 11.9835 108.189 11.8157C108.883 11.4773 109.644 11.3082 110.472 11.3082C111.64 11.3082 112.672 11.5873 113.568 12.1455C114.481 12.7036 115.192 13.4647 115.699 14.4288C116.224 15.3929 116.485 16.4922 116.485 17.7269C116.485 18.9616 116.224 20.0609 115.699 21.025C115.192 21.9891 114.481 22.7501 113.568 23.3083C112.672 23.8665 111.64 24.1455 110.472 24.1455ZM109.763 20.6445C110.32 20.6445 110.803 20.5176 111.208 20.2639C111.632 20.0102 111.961 19.6634 112.198 19.2237C112.435 18.784 112.553 18.285 112.553 17.7269C112.553 17.1518 112.435 16.6445 112.198 16.2047C111.961 15.7649 111.632 15.4267 111.208 15.1899C110.803 14.9361 110.329 14.8093 109.788 14.8093C109.247 14.8093 108.764 14.9361 108.342 15.1899C107.936 15.4267 107.615 15.7649 107.378 16.2047C107.141 16.6445 107.023 17.1518 107.023 17.7269C107.023 18.285 107.132 18.784 107.352 19.2237C107.589 19.6634 107.919 20.0102 108.342 20.2639C108.764 20.5176 109.238 20.6445 109.763 20.6445Z" fill="white" fill-opacity="0.64"/>
<path d="M120.284 23.9172C120.995 24.1033 121.713 24.1962 122.44 24.1962C123.98 24.1962 125.197 23.8411 126.094 23.1307C127.007 22.4204 127.464 21.4648 127.464 20.2639C127.464 19.4859 127.32 18.8601 127.032 18.3865C126.745 17.8961 126.373 17.507 125.916 17.2195C125.46 16.932 124.977 16.7036 124.47 16.5345C123.963 16.3653 123.48 16.2216 123.024 16.1032C122.568 15.9848 122.196 15.8495 121.908 15.6973C121.62 15.545 121.476 15.3421 121.476 15.0884C121.476 14.8516 121.587 14.674 121.806 14.5556C122.026 14.4203 122.356 14.3527 122.796 14.3527C123.252 14.3527 123.717 14.4457 124.191 14.6317C124.681 14.8177 125.121 15.1392 125.51 15.5958L127.717 13.3633C127.16 12.6529 126.432 12.1201 125.536 11.7649C124.656 11.3929 123.692 11.2068 122.644 11.2068C121.646 11.2068 120.775 11.3759 120.031 11.7141C119.286 12.0525 118.711 12.5176 118.305 13.1095C117.9 13.6845 117.696 14.3696 117.696 15.1645C117.696 15.9087 117.84 16.5261 118.128 17.0165C118.415 17.4901 118.788 17.8622 119.244 18.1328C119.7 18.4034 120.183 18.6149 120.69 18.767C121.197 18.9193 121.68 19.063 122.136 19.1984C122.592 19.3168 122.965 19.4605 123.252 19.6297C123.557 19.7819 123.709 20.0102 123.709 20.3146C123.709 20.5514 123.582 20.7374 123.328 20.8728C123.092 21.0081 122.745 21.0757 122.288 21.0757C121.628 21.0757 121.02 20.9573 120.462 20.7205C119.904 20.4669 119.421 20.1201 119.016 19.6804L116.808 21.9129C117.232 22.3696 117.739 22.7756 118.331 23.1307C118.94 23.4689 119.591 23.7311 120.284 23.9172Z" fill="white" fill-opacity="0.64"/>
<path d="M134.542 24.1709C133.409 24.1709 132.403 23.9426 131.524 23.4859C130.66 23.0123 129.984 22.3696 129.494 21.5578C129.003 20.7291 128.758 19.7819 128.758 18.7163V11.562H132.64V18.6656C132.64 19.0884 132.707 19.4521 132.843 19.7565C132.995 20.061 133.215 20.2978 133.502 20.4669C133.79 20.636 134.136 20.7206 134.542 20.7206C135.117 20.7206 135.574 20.543 135.912 20.1878C136.251 19.8157 136.42 19.3083 136.42 18.6656V11.562H140.301V18.691C140.301 19.7735 140.056 20.7291 139.565 21.5578C139.075 22.3696 138.399 23.0123 137.536 23.4859C136.673 23.9426 135.676 24.1709 134.542 24.1709Z" fill="white" fill-opacity="0.64"/>
<path d="M146.113 11.562H142.231V23.8918H146.113V16.6867C146.113 16.2639 146.197 15.9087 146.366 15.6212C146.553 15.3337 146.798 15.1137 147.102 14.9616C147.407 14.7924 147.753 14.7078 148.142 14.7078C148.701 14.7078 149.165 14.8854 149.537 15.2406C149.927 15.5789 150.121 16.0609 150.121 16.6867V23.8918H154.003V16.6867C154.003 16.2639 154.088 15.9087 154.257 15.6212C154.443 15.3337 154.688 15.1137 154.993 14.9616C155.297 14.7924 155.644 14.7078 156.033 14.7078C156.591 14.7078 157.056 14.8854 157.428 15.2406C157.817 15.5789 158.011 16.0609 158.011 16.6867V23.8918H161.893V16.2554C161.893 15.2237 161.673 14.3442 161.233 13.6169C160.81 12.8727 160.227 12.3061 159.483 11.9172C158.756 11.5112 157.918 11.3082 156.971 11.3082C156.007 11.3082 155.136 11.5197 154.358 11.9425C153.853 12.2119 153.411 12.5596 153.033 12.9855C152.68 12.54 152.251 12.1754 151.745 11.8917C151.069 11.5028 150.299 11.3082 149.437 11.3082C148.523 11.3082 147.703 11.5028 146.976 11.8917C146.659 12.0536 146.372 12.2474 146.113 12.4733V11.562Z" fill="white" fill-opacity="0.64"/>
</g>
<defs>
<clipPath id="clip0_1_1550">
<rect width="161.6" height="32" fill="white" transform="translate(0.647705)"/>
</clipPath>
</defs>
</svg>
