<svg width="119" height="28" viewBox="0 0 119 28" fill="none" xmlns="http://www.w3.org/2000/svg">
<g clip-path="url(#clip0_1_1538)">
<path fill-rule="evenodd" clip-rule="evenodd" d="M10.1155 19.4C9.22038 19.4 8.36193 19.0444 7.72899 18.4115C7.09606 17.7786 6.74048 16.9201 6.74048 16.025V0.5H-0.00952148V16.025C-0.00952148 21.6167 4.52378 26.15 10.1155 26.15H17.5405V19.4H10.1155ZM30.3655 7.25C29.5677 7.25 28.7777 7.40713 28.0407 7.71243C27.3036 8.01773 26.6339 8.46521 26.0698 9.02933C25.5057 9.59344 25.0582 10.2631 24.7529 11.0002C24.4476 11.7373 24.2905 12.5272 24.2905 13.325C24.2905 14.1228 24.4476 14.9127 24.7529 15.6498C25.0582 16.3869 25.5057 17.0566 26.0698 17.6207C26.6339 18.1848 27.3036 18.6323 28.0407 18.9376C28.7777 19.2429 29.5677 19.4 30.3655 19.4C31.9767 19.4 33.5219 18.76 34.6612 17.6207C35.8004 16.4814 36.4405 14.9362 36.4405 13.325C36.4405 11.7138 35.8004 10.1686 34.6612 9.02933C33.5219 7.89004 31.9767 7.25 30.3655 7.25ZM17.5405 13.325C17.5405 6.24223 23.2827 0.5 30.3655 0.5C37.4483 0.5 43.1905 6.24223 43.1905 13.325C43.1905 20.4078 37.4483 26.15 30.3655 26.15C23.2827 26.15 17.5405 20.4078 17.5405 13.325ZM103.265 7.25C101.654 7.25 100.109 7.89004 98.9698 9.02933C97.8305 10.1686 97.1905 11.7138 97.1905 13.325C97.1905 14.9362 97.8305 16.4814 98.9698 17.6207C100.109 18.76 101.654 19.4 103.265 19.4C104.877 19.4 106.422 18.76 107.561 17.6207C108.7 16.4814 109.34 14.9362 109.34 13.325C109.34 11.7138 108.7 10.1686 107.561 9.02933C106.422 7.89004 104.877 7.25 103.265 7.25ZM90.4405 13.325C90.4405 6.24223 96.1827 0.5 103.265 0.5C110.348 0.5 116.09 6.24223 116.09 13.325C116.09 20.4078 110.348 26.15 103.265 26.15C96.1827 26.15 90.4405 20.4078 90.4405 13.325ZM57.3655 0.5C50.2827 0.5 44.5405 6.24223 44.5405 13.325C44.5405 20.4078 50.2827 26.15 57.3655 26.15H76.2655C77.5946 26.15 78.8764 25.9475 80.0819 25.5722L83.6905 27.5L87.5839 20.2073C88.5729 18.3508 89.0903 16.2797 89.0905 14.1762V13.325C89.0905 6.24223 83.3483 0.5 76.2655 0.5H57.3655ZM82.3405 13.325C82.3405 11.7138 81.7005 10.1686 80.5612 9.02933C79.4219 7.89004 77.8767 7.25 76.2655 7.25H57.3655C56.5677 7.25 55.7777 7.40713 55.0407 7.71243C54.3036 8.01773 53.6339 8.46521 53.0698 9.02933C52.5057 9.59344 52.0582 10.2631 51.7529 11.0002C51.4476 11.7373 51.2905 12.5272 51.2905 13.325C51.2905 14.1228 51.4476 14.9127 51.7529 15.6498C52.0582 16.3869 52.5057 17.0566 53.0698 17.6207C53.6339 18.1848 54.3036 18.6323 55.0407 18.9376C55.7777 19.2429 56.5677 19.4 57.3655 19.4H76.2655C77.8685 19.4 79.4066 18.7665 80.5445 17.6374C81.6825 16.5083 82.328 14.9752 82.3405 13.3722V13.325Z" fill="white" fill-opacity="0.64"/>
<path d="M118.79 2.1875C118.79 2.63505 118.613 3.06428 118.296 3.38074C117.98 3.69721 117.551 3.875 117.103 3.875C116.655 3.875 116.226 3.69721 115.91 3.38074C115.593 3.06428 115.415 2.63505 115.415 2.1875C115.415 1.73995 115.593 1.31072 115.91 0.994257C116.226 0.67779 116.655 0.5 117.103 0.5C117.551 0.5 117.98 0.67779 118.296 0.994257C118.613 1.31072 118.79 1.73995 118.79 2.1875Z" fill="white" fill-opacity="0.64"/>
</g>
<defs>
<clipPath id="clip0_1_1538">
<rect width="118.8" height="27" fill="white" transform="translate(-0.00952148 0.5)"/>
</clipPath>
</defs>
</svg>
