<svg width="176" height="40" viewBox="0 0 176 40" fill="none" xmlns="http://www.w3.org/2000/svg">
<g clip-path="url(#clip0_1_1541)">
<path fill-rule="evenodd" clip-rule="evenodd" d="M166.359 11.8668L162.185 7.66415C162.125 7.4791 162.008 7.31735 161.852 7.2014C161.696 7.0854 161.507 7.02093 161.313 7.01687C161.147 7.01566 160.981 7.00753 160.815 6.99259C160.643 6.9769 160.47 6.95371 160.299 6.92308C160.235 6.66858 160.25 6.39352 160.265 6.12046C160.289 5.67885 160.312 5.24238 159.999 4.90617C159.999 4.90617 156.247 1.08821 155.572 0.431543C155.495 0.310732 155.392 0.209045 155.27 0.134211C155.148 0.0594347 155.01 0.0135152 154.868 2.72188e-06H154.793C154.555 -0.00056984 154.326 0.0892079 154.152 0.251186C153.978 0.413106 153.871 0.635203 153.855 0.872416C153.792 1.63581 153.596 2.38215 153.273 3.07695V3.12384C153.239 3.19765 153.202 3.26962 153.161 3.33959C152.692 4.24418 152.028 5.03323 151.216 5.6497C150.405 6.26624 149.467 6.69474 148.47 6.9043C148.281 6.94226 148.09 6.97043 147.898 6.98875H147.185C147.008 7.00129 146.839 7.06365 146.696 7.16854C146.553 7.27343 146.443 7.41657 146.378 7.58147C146.314 7.74631 146.297 7.92621 146.33 8.10021C146.363 8.27421 146.445 8.43528 146.566 8.56473L147.454 9.46033C146.928 9.3374 146.386 9.2912 145.843 9.32458C144.821 9.3121 143.807 9.50877 142.863 9.90235C141.92 10.2959 141.066 10.8782 140.356 11.6135L139.541 10.7984C139.589 10.847 139.634 10.8995 139.679 10.9533C139.704 10.9823 139.729 11.0118 139.755 11.0413C139.251 10.475 138.628 10.0273 137.931 9.73047C137.233 9.43365 136.479 9.29503 135.722 9.32458C134.463 9.29818 133.222 9.62306 132.138 10.2627L131.707 9.83112H115.703L115.543 10.5816L115.215 12.1576L112.888 9.82173H104.755L104.596 10.5722L104.061 13.152L102.466 11.5478C101.05 10.0844 98.7135 9.27769 95.5425 9.27769C91.4527 9.27769 88.4415 10.8068 87.1 13.3302L84.8955 11.1069L85.0175 11.2476C84.4165 10.61 83.6887 10.1054 82.8808 9.76608C82.073 9.42678 81.2031 9.26039 80.3271 9.27769C79.1358 9.29005 77.9684 9.61344 76.9406 10.2158L76.5747 9.8499H74.2389L74.4828 8.64913L74.7079 7.55158L70.1676 2.97372H62.0438V3.18013L61.8374 2.97372H5.71173V3.18013L5.49593 2.97372H-2.83426L-2.98432 3.72418L-7.97495 27.6923L-8.20947 28.7992L-3.66911 33.3771H4.63293L4.79243 32.6173L5.58983 28.7805L8.05693 31.2664C9.96873 33.042 12.5034 33.9925 15.1113 33.9118C17.1347 33.9377 19.1288 33.4262 20.8899 32.4296L25.2989 36.8668C26.8655 38.4427 29.3421 39.3433 32.4378 39.3433C34.6815 39.4674 36.9116 38.9222 38.8449 37.7767C38.9608 37.6992 39.0748 37.619 39.1869 37.5361C39.3228 37.4356 39.4559 37.3313 39.586 37.2232L39.7923 37.0262L39.8108 37.01C39.885 36.9446 39.9571 36.8811 40.0282 36.8164C40.1036 36.748 40.1778 36.6783 40.252 36.6041C40.5225 36.3082 40.7732 35.9949 41.0025 35.666L41.1057 35.5535C41.1302 35.5015 41.1584 35.4513 41.1901 35.4034C41.361 35.1399 41.5175 34.8675 41.6591 34.5872C41.6908 34.5392 41.719 34.4891 41.7436 34.4371C41.7486 34.4219 41.7486 34.4054 41.7436 34.3902C41.9351 33.9979 42.1011 33.5937 42.2408 33.1801C42.2604 33.1444 42.2761 33.1066 42.2877 33.0675L42.4284 32.6173L42.5128 32.3077C42.6066 31.9794 42.6911 31.6416 42.7567 31.2851L43.2914 28.7899L45.7586 31.2758C47.6846 33.0488 50.2347 33.9866 52.8505 33.8837C55.2839 33.9285 57.6654 33.1775 59.6329 31.7448L61.2182 33.3489H63.7698L63.3383 35.4034L67.8599 39.9531H75.9837L76.0494 39.6341L76.4153 40H152.335L152.485 39.2495L153.423 34.4559L153.489 33.3489L153.658 32.5891L155.787 22.439L155.843 22.1482V22.1475C155.843 22.1022 155.843 22.0579 155.846 22.0139C155.85 21.9215 155.865 21.8306 155.909 21.7354C155.941 21.6674 155.953 21.5949 155.959 21.5223C155.961 21.4937 155.962 21.465 155.964 21.4366C155.966 21.3881 155.968 21.3403 155.975 21.2945C155.982 21.2421 155.984 21.1779 155.985 21.1088L155.985 21.0911C155.989 20.9794 155.993 20.8566 156.022 20.7505C156.052 20.6325 156.042 20.5476 156.032 20.4655L156.032 20.4616C156.027 20.4209 156.022 20.3808 156.022 20.3377V20.2532C156.071 20.1888 156.092 20.127 156.101 20.065C156.106 20.0198 156.106 19.9745 156.106 19.9281C156.106 19.9177 156.106 19.9073 156.106 19.8968V18.9869C156.106 18.9117 156.106 18.8182 156.096 18.7238L157.466 20.1032C157.622 20.2595 157.828 20.3558 158.048 20.3753C158.238 20.3888 158.427 20.3474 158.593 20.2558C158.76 20.1643 158.896 20.0266 158.986 19.8593C159.109 18.4109 159.674 17.0353 160.606 15.9193C161.537 14.8033 162.789 14.0009 164.193 13.621C164.476 13.5162 164.825 13.4909 165.171 13.4659C165.971 13.4081 166.754 13.3515 166.669 12.3171C166.613 12.1396 166.505 11.9829 166.359 11.8668ZM153.75 15.4414C153.689 15.4367 153.629 15.4198 153.574 15.3917C153.518 15.3637 153.469 15.325 153.429 15.2779C153.389 15.2308 153.359 15.1763 153.34 15.1174C153.321 15.0585 153.314 14.9965 153.319 14.9348C153.397 14.0994 153.298 13.2568 153.028 12.4624C152.758 11.668 152.323 10.9395 151.751 10.3249C151.18 9.71022 150.485 9.2232 149.713 8.8957C148.94 8.56821 148.107 8.40763 147.268 8.42449C147.144 8.42449 147.025 8.37508 146.937 8.28711C146.849 8.19915 146.799 8.07984 146.799 7.95544C146.799 7.83104 146.849 7.71175 146.937 7.62379C147.025 7.53582 147.144 7.4864 147.268 7.4864C147.493 7.50094 147.719 7.50094 147.944 7.4864C149.61 7.30889 151.162 6.5561 152.333 5.35757C153.505 4.15904 154.221 2.58974 154.36 0.919795C154.37 0.802012 154.423 0.692146 154.51 0.612143C154.597 0.532141 154.711 0.487905 154.829 0.488284C154.891 0.493019 154.951 0.509907 155.006 0.537968C155.061 0.566029 155.11 0.604712 155.15 0.651793C155.191 0.698875 155.221 0.753421 155.24 0.812297C155.259 0.871173 155.266 0.933209 155.261 0.994844C155.183 1.82951 155.282 2.67126 155.551 3.46504C155.821 4.25881 156.255 4.98674 156.825 5.60124C157.396 6.21573 158.089 6.70295 158.86 7.03104C159.632 7.35913 160.464 7.52069 161.302 7.50516C161.426 7.50516 161.546 7.55459 161.634 7.64255C161.722 7.73051 161.771 7.84981 161.771 7.97421C161.771 8.09861 161.722 8.21792 161.634 8.30588C161.546 8.39384 161.426 8.44325 161.302 8.44325C159.52 8.47269 157.811 9.15923 156.504 10.3712C155.197 11.5831 154.383 13.235 154.22 15.0099C154.21 15.1277 154.157 15.2376 154.07 15.3176C153.983 15.3976 153.869 15.4418 153.75 15.4414ZM34.7267 10.7502H40.6554L37.3346 26.5006C36.7249 29.4837 35.5616 31.1911 33.798 32.4012C32.0143 33.4363 29.966 33.9255 27.9069 33.8083C23.9857 33.8083 20.2239 32.1667 19.8487 28.1798H25.8149C26.0025 29.1179 26.8657 29.6526 28.179 29.6526C29.952 29.6526 30.7681 28.5832 31.1339 26.904L31.4903 25.1685H31.3591C30.8356 25.744 30.2006 26.207 29.4926 26.5295C28.7846 26.852 28.0187 27.0273 27.2408 27.0447C23.7887 27.0447 21.0494 24.2961 21.1057 20.2717C21.1808 15.5813 24.2389 10.253 29.3703 10.253C30.3428 10.1875 31.3135 10.4018 32.168 10.8706C33.0225 11.3393 33.7248 12.043 34.1921 12.8984H34.2952L34.7267 10.7502ZM29.6329 22.6451C31.9125 22.6451 33.179 20.0185 33.2164 17.7577C33.2164 16.2474 32.6255 14.6995 30.8806 14.6995C28.4978 14.6995 27.2877 17.3543 27.2502 19.6338C27.2502 21.1723 27.8412 22.6451 29.586 22.6451H29.6329ZM96.1907 23.1517C96.1907 24.1554 95.3267 24.5588 94.1917 24.5588C92.3157 24.5588 91.6873 23.6207 91.6779 22.3074H85.7775C85.6742 27.2042 90.0457 28.4143 93.9296 28.4143C98.8916 28.4143 102.11 26.2661 102.176 21.9791C102.176 18.555 99.2577 17.5138 96.3876 16.8477C94.1826 16.3412 93.2166 15.9753 93.2256 15.1404C93.2356 14.3055 94.2206 13.9678 95.1867 13.9678C96.3967 13.9678 97.2216 14.3993 97.3066 15.5063H103.039C102.973 11.4162 99.2856 10.2155 95.5336 10.2155C90.9744 10.2155 87.419 12.2886 87.3627 16.2098C87.3627 19.2961 89.4453 20.4312 92.5876 21.238C92.9013 21.3212 93.205 21.3955 93.4941 21.4662C95.0643 21.8504 96.2058 22.1297 96.1907 23.1517ZM140.027 13.2924H139.924C139.669 12.3686 139.105 11.5599 138.327 11.0002C137.549 10.4406 136.603 10.1637 135.646 10.2155C133.095 10.2155 131.538 11.4819 130.065 13.3956H129.962L130.506 10.7502H124.539L120.965 27.8421H127.204L129.08 18.6207C129.511 16.6132 130.534 15.2061 132.082 15.2061C133.63 15.2061 133.836 16.4443 133.517 17.9547L131.453 27.8421H137.691L139.568 18.6207C139.999 16.4819 141.022 15.2061 142.569 15.2061C144.117 15.2061 144.324 16.3787 144.005 17.9547L141.941 27.8421H148.179L150.412 17.6826C151.35 13.3956 149.915 10.1779 145.797 10.1779C144.651 10.1732 143.523 10.4558 142.515 10.9999C141.507 11.544 140.652 12.3322 140.027 13.2924ZM-7.06494 27.8421H-0.620292L4.36095 3.87402H-2.07432L-7.06494 27.8421ZM12.3347 10.2436C16.6874 10.2436 20.8431 12.6263 20.7774 18.0203C20.7211 23.9209 16.7061 28.3393 10.571 28.3393C6.34965 28.3393 2.12835 25.9941 2.20335 20.6282C2.30655 14.8684 6.26525 10.2436 12.3347 10.2436ZM14.5016 17.8233C14.5016 20.1633 13.5024 24.1377 10.7677 24.1554C9.01033 24.1445 8.52605 22.6388 8.52605 20.9003C8.52605 18.7239 9.45475 14.5025 12.1751 14.5025C13.9858 14.5025 14.5016 16.1442 14.5016 17.8233ZM6.50915 3.87402L5.57105 8.66764H59.6892L60.6273 3.87402H6.50915ZM50.0364 10.2436C54.389 10.2436 58.5447 12.6263 58.4791 18.0203C58.4229 23.9209 54.3984 28.3393 48.2633 28.3393C44.0419 28.3393 39.8205 25.9941 39.905 20.6282C40.0364 14.8684 43.995 10.2436 50.0364 10.2436ZM52.2314 17.8233C52.2314 20.1633 51.2322 24.1377 48.4974 24.1554C46.7307 24.1445 46.2464 22.6388 46.2464 20.9003C46.2464 18.7239 47.1845 14.5025 49.8956 14.5025C51.7062 14.5025 52.2314 16.1442 52.2314 17.8233ZM62.8412 3.87402L61.9032 8.66764H68.132L69.0702 3.87402H62.8412ZM57.8506 27.8421H64.0889L67.6629 10.7502H61.3871L57.8506 27.8421ZM77.7568 28.4143C76.764 28.4848 75.771 28.2773 74.8895 27.815C74.0079 27.3527 73.2727 26.6539 72.7662 25.7971H72.6629L70.7868 34.4462H64.4734L69.5391 10.7502H75.4678L74.9988 13.0297C75.618 12.1877 76.42 11.497 77.3445 11.0095C78.269 10.5221 79.2919 10.2506 80.3365 10.2155C84.0888 10.2155 86.2934 13.4331 86.2278 17.617C86.1432 22.8796 83.4134 28.4143 77.7192 28.4143H77.7568ZM77.5128 15.056C75.1021 15.056 73.6199 18.1423 73.5824 20.5157C73.5824 22.1667 74.1639 24.0053 76.1432 24.0053C78.7231 24.0053 79.7831 20.5907 79.8111 18.3111C79.8111 16.7633 79.3609 15.056 77.5128 15.056ZM113.583 25.1498H113.686L113.142 27.8609H119.07L122.645 10.7689H116.416L114.427 20.3186C114.024 22.298 112.804 23.3393 111.266 23.3393C109.727 23.3393 109.389 21.8946 109.699 20.3843L111.716 10.7689H105.487L103.282 21.3224C102.344 25.919 104.483 28.3956 108.067 28.3956C109.192 28.3846 110.295 28.0771 111.263 27.5039C112.231 26.9307 113.032 26.1122 113.583 25.131V25.1498ZM147.044 34.5307L147.982 29.737H74.0044L73.0664 34.5307H147.044Z" fill="white" fill-opacity="0.64"/>
</g>
<defs>
<clipPath id="clip0_1_1541">
<rect width="175" height="40" fill="white" transform="translate(0.790527)"/>
</clipPath>
</defs>
</svg>
