<svg width="126" height="40" viewBox="0 0 126 40" fill="none" xmlns="http://www.w3.org/2000/svg">
<path d="M-0.476199 16.8752C2.51237 16.8752 3.18476 18.1733 3.18476 19.7924C3.18476 21.5086 2.37142 22.7381 -0.463817 22.7381C-3.28096 22.7381 -4.09525 21.58 -4.09525 19.7924C-4.09525 18.0333 -3.20763 16.8752 -0.476199 16.8752Z" fill="white" fill-opacity="0.64"/>
<path d="M30.7562 16.8752C33.7448 16.8752 34.4171 18.1733 34.4171 19.7924C34.4171 21.5086 33.6029 22.7381 30.7686 22.7381C27.9524 22.7381 27.1371 21.58 27.1371 19.7924C27.1371 18.0333 28.0248 16.8752 30.7562 16.8752Z" fill="white" fill-opacity="0.64"/>
<path fill-rule="evenodd" clip-rule="evenodd" d="M-26.9364 36.6666V2.90186H124.09V36.6666H-26.9364ZM45.0427 34.7619H122.186V4.80662H45.0427V34.7619ZM-0.461916 25.6123C4.8438 25.6123 7.07427 23.3238 7.07427 19.7495C7.07427 16.1171 4.5619 13.958 -0.461916 13.958C-5.40858 13.958 -8.01239 16.3028 -8.01239 19.7495C-8.01239 23.639 -5.28096 25.6123 -0.461916 25.6123ZM-18.9086 14.2152V25.4409H-8.20001V22.4514H-15.0343V14.2152H-18.9086ZM19.059 25.4409L18.959 24.3533C17.6629 25.2782 16.0854 25.7234 14.4971 25.6123C12.1095 25.6123 10.1209 24.8971 9.0057 23.4533C8.27008 22.3992 7.89865 21.1339 7.94761 19.8495C7.9058 18.592 8.29008 17.3574 9.03808 16.3457C10.1667 14.9447 12.2124 14.0152 15.2581 14.0152C18.7619 14.0152 20.8209 15.0876 21.7067 16.8895C21.8968 17.3139 22.0085 17.7691 22.0362 18.2333H18.3295C18.2361 17.9512 18.0623 17.7026 17.8295 17.518C17.0911 17.0285 16.2094 16.8021 15.3267 16.8752C14.8088 16.8124 14.2835 16.8602 13.7856 17.0156C13.2877 17.1709 12.8284 17.4301 12.4381 17.7761C11.9948 18.3828 11.7868 19.1297 11.8524 19.878C11.8009 20.592 11.9923 21.3025 12.3952 21.8942C12.789 22.2612 13.2572 22.5391 13.7679 22.7094C14.2787 22.8796 14.8199 22.9381 15.3552 22.8809C16.4184 22.9674 17.4739 22.6395 18.3009 21.9657C18.4786 21.7436 18.601 21.4824 18.6581 21.2038H14.6695V18.7914H22.1333V25.4409H19.059ZM30.7705 25.6123C36.0752 25.6123 38.3067 23.3238 38.3067 19.7495C38.3067 16.1171 35.7904 13.958 30.7705 13.958C25.8238 13.958 23.22 16.3028 23.22 19.7495C23.22 23.639 25.9514 25.6123 30.7705 25.6123Z" fill="white" fill-opacity="0.64"/>
<path d="M51.5686 25.3981V14.1724H54.3305V25.3981H51.5686Z" fill="white" fill-opacity="0.64"/>
<path d="M68.5134 20.7077C67.8134 21.6229 66.6086 22.041 64.9105 22.0515C64.5524 22.0515 59.8048 22.0372 59.8048 22.0372V25.3982H57.1019V14.1724H64.9114C65.5374 14.1062 66.1705 14.1726 66.7686 14.3672C67.3676 14.5619 67.9181 14.8803 68.3857 15.302C69.0029 16.106 69.3029 17.1084 69.2295 18.1191C69.2924 19.0383 69.04 19.9516 68.5134 20.7077ZM66.2972 17.0477C66.0115 16.6191 65.3953 16.381 64.3524 16.381H59.7905V19.7982H64.3229C65.4381 19.7982 66.0257 19.5696 66.2972 19.1258C66.4581 18.8131 66.5276 18.461 66.4972 18.1105C66.521 17.745 66.4524 17.3794 66.2972 17.0477Z" fill="white" fill-opacity="0.64"/>
<path d="M77.1943 25.5695C72.1028 25.5695 70.5447 23.6648 70.5447 21.78H73.4333C73.4333 22.7095 74.7057 23.4105 77.3228 23.4105C79.9247 23.4105 80.6114 22.9524 80.6114 22.2086C80.6114 21.3791 80.0971 21.1219 77.68 20.8505C77.2038 20.8076 75.9076 20.6505 75.4209 20.5791C71.9924 20.1924 70.6724 19.1772 70.6724 17.361C70.6724 15.4448 72.6038 14.001 76.7933 14.001C81.3409 14.001 83.0857 15.7886 83.0857 17.6476H80.2285C80.2285 16.7038 79.1562 16.16 76.6247 16.16C74.0219 16.16 73.4647 16.5172 73.4647 17.2181C73.4647 17.9476 74.0362 18.1762 76.7981 18.5048C77.4276 18.5915 78.8286 18.7486 79.2143 18.7905C82.1324 19.0905 83.4476 20.1486 83.4476 22.0219C83.4428 24.2534 81.4409 25.5695 77.1943 25.5695Z" fill="white" fill-opacity="0.64"/>
<path d="M91.5809 25.5552C87.8495 25.5552 85.4181 24.0819 85.4181 20.9838V14.1724H88.1486V21.0219C88.1486 22.4381 89.3076 23.3809 91.6952 23.3809C93.8543 23.3809 95.1419 22.4952 95.1419 21.0219V14.1724H97.8448V21.2381C97.8448 24.0543 95.5848 25.5552 91.5809 25.5552Z" fill="white" fill-opacity="0.64"/>
<path d="M112.645 25.3981V17.9047L109.141 25.3981H106.482L103.078 17.9047V25.3981H100.507V14.1724H103.991L107.851 22.7238L111.798 14.1724H115.227V25.3981H112.645Z" fill="white" fill-opacity="0.64"/>
</svg>
