<svg width="152" height="40" viewBox="0 0 152 40" fill="none" xmlns="http://www.w3.org/2000/svg">
<path d="M44.802 12.8686H48.4706V27.7257H44.802V12.8686ZM49.9334 22.1371C49.9334 18.4571 52.2191 16.2514 55.6477 16.2514C59.0763 16.2514 61.362 18.4571 61.362 22.1371C61.362 25.8171 59.1563 28.0457 55.6477 28.0457C52.1391 28.0457 49.9334 25.8971 49.9334 22.1371ZM57.7277 22.1371C57.7277 20.1143 56.9391 18.9257 55.682 18.9257C54.4249 18.9257 53.6477 20.0686 53.6477 22.1371C53.6477 24.2057 54.4249 25.3371 55.682 25.3371C56.9391 25.3371 57.7506 24.2057 57.7506 22.1486L57.7277 22.1371ZM62.8249 28.4914H66.3677C66.529 28.8728 66.8107 29.1911 67.1698 29.3974C67.5289 29.6038 67.9455 29.687 68.3563 29.6343C69.762 29.6343 70.4934 28.88 70.4934 27.76V25.7029H70.5049C70.2021 26.3434 69.7125 26.8773 69.1006 27.2343C68.4886 27.5913 67.7829 27.7546 67.0763 27.7029C64.3906 27.7029 62.6077 25.6571 62.6077 22.1371C62.6077 18.6171 64.3106 16.4229 67.1791 16.4229C67.9038 16.3841 68.6228 16.571 69.2367 16.9578C69.8508 17.3447 70.3298 17.9125 70.6077 18.5829H70.5049V16.5143H74.1391V27.6457C74.1391 30.3314 71.762 32.0114 68.2649 32.0114C65.0877 32 63.0534 30.5486 62.8477 28.5029L62.8249 28.4914ZM70.5049 22.1371C70.5049 20.3429 69.682 19.2114 68.3791 19.2114C67.0763 19.2114 66.2763 20.3543 66.2763 22.1371C66.2763 23.92 67.0649 24.9714 68.3791 24.9714C69.6934 24.9714 70.5049 24 70.5049 22.1371ZM75.5906 22.1371C75.5906 18.4571 77.8763 16.2514 81.3049 16.2514C84.7334 16.2514 87.0191 18.4571 87.0191 22.1371C87.0191 25.8171 84.802 28.0457 81.3049 28.0457C77.8077 28.0457 75.6134 25.8971 75.6134 22.1371H75.5906ZM83.3848 22.1371C83.3848 20.1143 82.5849 18.9257 81.3391 18.9257C80.0934 18.9257 79.3049 20.0686 79.3049 22.1371C79.3049 24.2057 80.082 25.3371 81.3391 25.3371C82.5963 25.3371 83.4077 24.2057 83.4077 22.1486L83.3848 22.1371ZM88.5049 13.8057C88.4889 13.432 88.5851 13.0621 88.7811 12.7435C88.9771 12.4249 89.2639 12.1723 89.6047 12.0182C89.9455 11.8639 90.3246 11.8152 90.6933 11.8783C91.062 11.9413 91.4034 12.1131 91.6735 12.3718C91.9437 12.6305 92.1303 12.964 92.2094 13.3296C92.2884 13.6952 92.2563 14.0761 92.1171 14.4232C91.9779 14.7704 91.738 15.068 91.4283 15.2777C91.1186 15.4874 90.7532 15.5997 90.3791 15.6C90.1402 15.6061 89.9022 15.5646 89.6794 15.4781C89.4565 15.3914 89.253 15.2614 89.0807 15.0955C88.9085 14.9297 88.7709 14.7313 88.6761 14.5118C88.5811 14.2923 88.5307 14.0562 88.5277 13.8171L88.5049 13.8057ZM88.5049 16.5029H92.2191V27.7714H88.562L88.5049 16.5029ZM105.579 22.1371C105.579 25.8057 103.933 27.9314 101.133 27.9314C100.417 27.9757 99.7035 27.7987 99.0903 27.4248C98.4772 27.0507 97.9937 26.4976 97.7049 25.84H97.6363V31.3943H93.9677V16.5371H97.6134V18.5486H97.682C97.9608 17.8781 98.4397 17.3097 99.0532 16.9211C99.6668 16.5326 100.385 16.3426 101.111 16.3771C103.991 16.3543 105.648 18.4686 105.648 22.1486L105.579 22.1371ZM101.842 22.1371C101.842 20.3543 101.008 19.2 99.7163 19.2C98.4249 19.2 97.6134 20.3429 97.602 22.1371C97.5906 23.9314 98.4249 25.0629 99.7163 25.0629C101.008 25.0629 101.911 24 101.911 22.1486L101.842 22.1371ZM111.842 16.24C114.916 16.24 116.825 17.6914 116.848 20.0229H113.499C113.499 19.2114 112.825 18.7086 111.819 18.7086C110.813 18.7086 110.333 19.0971 110.333 19.68C110.333 20.2629 110.756 20.4457 111.602 20.6171L113.956 21.0971C116.242 21.5771 117.156 22.4914 117.156 24.1943C117.156 26.48 115.042 28.0343 111.899 28.0343C108.756 28.0343 106.711 26.5257 106.562 24.2286H110.116C110.219 25.0629 110.882 25.5543 111.956 25.5543C113.031 25.5543 113.533 25.2114 113.533 24.6057C113.533 24 113.191 23.8971 112.311 23.7143L110.185 23.2686C107.979 22.8 106.825 21.6457 106.825 19.92C106.893 17.68 108.813 16.2514 111.911 16.2514L111.842 16.24ZM129.442 27.76H125.888V25.6457H125.819C125.62 26.351 125.187 26.9673 124.591 27.3931C123.994 27.8191 123.271 28.029 122.539 27.9886C121.987 28.0065 121.436 27.9075 120.925 27.6979C120.415 27.4885 119.953 27.1731 119.572 26.7728C119.191 26.3723 118.899 25.8959 118.715 25.3747C118.531 24.8536 118.459 24.2993 118.505 23.7486V16.5143H122.173V22.96C122.173 24.2857 122.871 25.0057 124.013 25.0057C124.282 25.0037 124.546 24.9441 124.789 24.8312C125.033 24.7182 125.249 24.5543 125.423 24.3506C125.597 24.147 125.727 23.9082 125.801 23.6506C125.874 23.3929 125.892 23.1224 125.853 22.8571V16.5143H129.511L129.442 27.76ZM131.213 16.5029H134.779V18.6743H134.859C135.056 17.9786 135.479 17.368 136.059 16.9378C136.641 16.5078 137.348 16.2824 138.071 16.2971C138.796 16.2341 139.52 16.4439 140.098 16.8856C140.677 17.3273 141.071 17.9693 141.202 18.6857H141.362C141.591 17.9654 142.05 17.3407 142.671 16.9088C143.29 16.4768 144.036 16.2618 144.791 16.2971C145.292 16.2781 145.793 16.3651 146.258 16.5527C146.724 16.7401 147.145 17.0239 147.493 17.3854C147.842 17.7467 148.109 18.1777 148.28 18.6499C148.451 19.1222 148.52 19.625 148.482 20.1257V27.7714H144.791V21.0629C144.791 19.92 144.253 19.28 143.213 19.28C142.983 19.2762 142.754 19.3224 142.543 19.4152C142.331 19.5081 142.144 19.6456 141.991 19.8182C141.837 19.9909 141.723 20.1944 141.656 20.4152C141.589 20.636 141.571 20.8686 141.602 21.0971V27.7714H138.105V21.0286C138.105 19.8857 137.545 19.28 136.539 19.28C136.306 19.2782 136.075 19.3262 135.863 19.4208C135.649 19.5155 135.459 19.6546 135.304 19.8289C135.149 20.0032 135.034 20.2086 134.965 20.4312C134.896 20.6539 134.875 20.8888 134.905 21.12V27.7714H131.236L131.213 16.5029Z" fill="white" fill-opacity="0.64"/>
<path d="M37.5448 13.8399C37.5449 11.5653 36.858 9.34367 35.5742 7.46603C34.2903 5.58838 32.4691 4.14227 30.3495 3.31713C28.2298 2.49197 25.9103 2.32626 23.6948 2.84167C21.4793 3.35709 19.4712 4.52962 17.9334 6.20566H3.67053V36.3085H33.7848V22.2399C34.9667 21.1828 35.9126 19.8883 36.5604 18.4409C37.2083 16.9934 37.5438 15.4258 37.5448 13.8399ZM31.7505 13.8399C31.7528 14.9299 31.4316 15.9961 30.8278 16.9035C30.2238 17.8108 29.3643 18.5187 28.3579 18.9373C27.3515 19.3561 26.2436 19.4668 25.1743 19.2555C24.105 19.0443 23.1224 18.5205 22.3508 17.7506C21.5793 16.9806 21.0536 15.9991 20.8401 14.9302C20.6266 13.8614 20.7351 12.7532 21.1516 11.746C21.5682 10.7388 22.2743 9.87776 23.1803 9.27197C24.0865 8.66618 25.152 8.34282 26.2419 8.34281C27.7009 8.34281 29.1003 8.92161 30.133 9.95219C31.1658 10.9828 31.7475 12.381 31.7505 13.8399ZM27.9905 30.5142H9.46482V11.9999H15.1105C15.0015 12.6074 14.9441 13.2229 14.9391 13.8399C14.9422 16.8367 16.1339 19.7099 18.253 21.829C20.372 23.9479 23.2451 25.1398 26.2419 25.1428C26.8279 25.1397 27.4126 25.09 27.9905 24.9942V30.5142Z" fill="white" fill-opacity="0.64"/>
</svg>
