<svg width="135" height="34" viewBox="0 0 135 34" fill="none" xmlns="http://www.w3.org/2000/svg">
<path d="M15.6976 6.65002V2.40002H2.29761V31.6H15.6976V27.35C12.9526 27.35 10.32 26.2595 8.37905 24.3185C6.43805 22.3775 5.34761 19.745 5.34761 17C5.34761 14.255 6.43805 11.6224 8.37905 9.68147C10.32 7.74047 12.9526 6.65002 15.6976 6.65002Z" fill="white" fill-opacity="0.64"/>
<path d="M15.6975 6.65002V27.35C18.4425 27.35 21.0751 26.2595 23.0161 24.3185C24.9571 22.3775 26.0475 19.745 26.0475 17C26.0475 14.255 24.9571 11.6224 23.0161 9.68147C21.0751 7.74047 18.4425 6.65002 15.6975 6.65002Z" fill="white" fill-opacity="0.64"/>
<path d="M33.5675 9.25H36.5675V23.7H33.5675V9.25Z" fill="white" fill-opacity="0.64"/>
<path d="M38.2475 18.75C38.2475 17.7104 38.5562 16.6942 39.1344 15.8302C39.7126 14.9662 40.5343 14.2933 41.4954 13.8968C42.4565 13.5004 43.5136 13.3982 44.5328 13.6032C45.552 13.8082 46.4874 14.3112 47.2204 15.0484C47.9534 15.7857 48.4511 16.7239 48.6503 17.7443C48.8494 18.7647 48.7412 19.8212 48.3392 20.78C47.9372 21.7387 47.2597 22.5566 46.3924 23.1298C45.5251 23.7031 44.5071 24.0059 43.4675 24C42.778 24.0054 42.0943 23.8731 41.4566 23.6107C40.8189 23.3484 40.2399 22.9614 39.7537 22.4725C39.2675 21.9835 38.8839 21.4023 38.6252 20.7631C38.3666 20.1239 38.2382 19.4395 38.2475 18.75ZM45.7675 18.75C45.7557 18.3018 45.612 17.867 45.3544 17.5001C45.0968 17.1331 44.7368 16.8502 44.3192 16.6868C43.9017 16.5234 43.4453 16.4867 43.0071 16.5814C42.5688 16.676 42.1682 16.8977 41.8553 17.2189C41.5424 17.54 41.3311 17.9462 41.2479 18.3868C41.1647 18.8274 41.2132 19.2827 41.3874 19.6958C41.5616 20.1089 41.8537 20.4616 42.2273 20.7095C42.6008 20.9575 43.0391 21.0898 43.4875 21.09C43.7928 21.096 44.096 21.0389 44.3782 20.9223C44.6604 20.8058 44.9155 20.6323 45.1276 20.4127C45.3397 20.1931 45.5042 19.932 45.6109 19.646C45.7176 19.3599 45.7641 19.0549 45.7475 18.75H45.7675Z" fill="white" fill-opacity="0.64"/>
<path d="M60.5576 13.8V23.21C60.5576 26.53 57.9576 27.94 55.3276 27.94C54.3999 28.0161 53.4694 27.8318 52.6409 27.4078C51.8123 26.9838 51.1185 26.3369 50.6376 25.54L53.1676 24.08C53.3726 24.4934 53.6987 24.8344 54.1025 25.0577C54.5063 25.281 54.9685 25.376 55.4276 25.33C55.7201 25.366 56.0169 25.337 56.2968 25.245C56.5768 25.1529 56.8329 25.0002 57.0469 24.7976C57.261 24.595 57.4276 24.3477 57.5349 24.0732C57.6422 23.7988 57.6875 23.504 57.6676 23.21V22.3C57.3185 22.7233 56.8755 23.0593 56.3739 23.2815C55.8722 23.5037 55.3257 23.6059 54.7776 23.58C53.4515 23.58 52.1798 23.0532 51.2421 22.1155C50.3044 21.1779 49.7776 19.9061 49.7776 18.58C49.7776 17.2539 50.3044 15.9822 51.2421 15.0445C52.1798 14.1068 53.4515 13.58 54.7776 13.58C55.3257 13.5541 55.8722 13.6563 56.3739 13.8785C56.8755 14.1007 57.3185 14.4367 57.6676 14.86V13.86L60.5576 13.8ZM57.6676 18.55C57.6875 18.0716 57.5639 17.5981 57.3126 17.1905C57.0613 16.7829 56.6939 16.4598 56.2574 16.2627C55.821 16.0656 55.3357 16.0036 54.8637 16.0846C54.3918 16.1656 53.9548 16.3859 53.6091 16.7172C53.2634 17.0485 53.0247 17.4757 52.9237 17.9438C52.8227 18.4119 52.864 18.8994 53.0423 19.3438C53.2207 19.7882 53.5279 20.1691 53.9244 20.4375C54.321 20.7059 54.7888 20.8496 55.2676 20.85C55.5801 20.8725 55.8938 20.8292 56.1884 20.723C56.4831 20.6167 56.7523 20.4498 56.9784 20.233C57.2046 20.0163 57.3828 19.7545 57.5015 19.4646C57.6202 19.1747 57.6768 18.8631 57.6676 18.55Z" fill="white" fill-opacity="0.64"/>
<path d="M62.2475 18.75C62.2475 17.7112 62.5557 16.6958 63.133 15.8322C63.7103 14.9686 64.5308 14.2957 65.4907 13.8987C66.4506 13.5016 67.5067 13.3982 68.5254 13.6016C69.5441 13.805 70.4795 14.306 71.2134 15.0412C71.9472 15.7765 72.4464 16.7129 72.6478 17.7319C72.8493 18.751 72.7439 19.8069 72.345 20.766C71.9461 21.7252 71.2716 22.5444 70.407 23.1201C69.5423 23.6958 68.5263 24.002 67.4875 24C66.7967 24.0067 66.1114 23.8754 65.472 23.6138C64.8326 23.3522 64.2518 22.9656 63.7638 22.4766C63.2757 21.9876 62.8902 21.4061 62.6298 20.7662C62.3695 20.1263 62.2395 19.4408 62.2475 18.75ZM69.7675 18.75C69.7557 18.3014 69.6117 17.8662 69.3537 17.499C69.0957 17.1319 68.735 16.849 68.3169 16.6859C67.8988 16.5228 67.4419 16.4867 67.0034 16.5822C66.5649 16.6776 66.1643 16.9004 65.8518 17.2225C65.5393 17.5446 65.3288 17.9518 65.2468 18.393C65.1647 18.8342 65.2146 19.2898 65.3903 19.7027C65.566 20.1157 65.8597 20.4676 66.2346 20.7144C66.6094 20.9611 67.0487 21.0918 67.4975 21.09C67.8028 21.096 68.106 21.0389 68.3882 20.9223C68.6704 20.8058 68.9255 20.6323 69.1376 20.4127C69.3497 20.1931 69.5142 19.932 69.6209 19.646C69.7276 19.3599 69.7741 19.0549 69.7575 18.75H69.7675Z" fill="white" fill-opacity="0.64"/>
<path d="M74.1176 11.15C74.1176 10.798 74.2219 10.4538 74.4175 10.1611C74.6131 9.86836 74.8912 9.64022 75.2164 9.50549C75.5417 9.37077 75.8996 9.33552 76.2449 9.4042C76.5901 9.47288 76.9072 9.64241 77.1562 9.89135C77.4051 10.1403 77.5746 10.4575 77.6433 10.8027C77.712 11.148 77.6768 11.5059 77.5421 11.8312C77.4074 12.1564 77.1792 12.4344 76.8865 12.63C76.5938 12.8256 76.2497 12.93 75.8976 12.93C75.4271 12.9248 74.9774 12.7356 74.6447 12.4029C74.312 12.0702 74.1228 11.6205 74.1176 11.15ZM74.4076 13.8H77.4076V23.7H74.4076V13.8Z" fill="white" fill-opacity="0.64"/>
<path d="M90.2475 18.75C90.2811 19.4084 90.1842 20.067 89.9623 20.6878C89.7405 21.3086 89.398 21.8794 88.9547 22.3673C88.5113 22.8553 87.9759 23.2507 87.3791 23.5309C86.7824 23.8111 86.1361 23.9705 85.4775 24C84.9186 24.0372 84.3585 23.9477 83.8391 23.7382C83.3196 23.5286 82.8542 23.2045 82.4775 22.79V27.68H79.4775V13.8H82.4775V14.73C82.8547 14.3167 83.3205 13.9941 83.84 13.7863C84.3595 13.5784 84.9193 13.4908 85.4775 13.53C86.1335 13.5595 86.7772 13.718 87.3719 13.9963C87.9666 14.2746 88.5007 14.6674 88.9436 15.1521C89.3866 15.6368 89.7297 16.204 89.9534 16.8214C90.1771 17.4387 90.2771 18.094 90.2475 18.75ZM87.2475 18.75C87.2357 18.2855 87.087 17.8349 86.8202 17.4546C86.5534 17.0743 86.1802 16.7811 85.7475 16.612C85.3148 16.4428 84.8418 16.4052 84.3877 16.5037C83.9337 16.6022 83.5189 16.8326 83.1952 17.1659C82.8715 17.4992 82.6534 17.9206 82.5683 18.3774C82.4831 18.8341 82.5346 19.3058 82.7164 19.7334C82.8982 20.1609 83.2021 20.5253 83.5901 20.7809C83.9781 21.0365 84.4329 21.1718 84.8975 21.17C85.2157 21.1835 85.5332 21.1296 85.8291 21.0118C86.1251 20.894 86.3928 20.715 86.6147 20.4865C86.8366 20.258 87.0076 19.9851 87.1167 19.6859C87.2258 19.3866 87.2703 19.0677 87.2475 18.75Z" fill="white" fill-opacity="0.64"/>
<path d="M99.3776 20.73C99.3776 23.01 97.3776 23.98 95.2576 23.98C94.3929 24.0578 93.5248 23.8745 92.7654 23.4538C92.006 23.0331 91.3902 22.3943 90.9976 21.62L93.5776 20.16C93.6798 20.5168 93.9014 20.8277 94.2054 21.0407C94.5094 21.2537 94.8773 21.3558 95.2476 21.33C95.9576 21.33 96.3176 21.11 96.3176 20.71C96.3176 19.62 91.4476 20.2 91.4476 16.77C91.4476 14.61 93.2676 13.53 95.3276 13.53C96.1106 13.4949 96.8886 13.6726 97.5787 14.0441C98.2689 14.4156 98.8456 14.9671 99.2476 15.64L96.6676 17C96.5536 16.742 96.3674 16.5226 96.1314 16.3682C95.8953 16.2138 95.6196 16.1311 95.3376 16.13C94.8176 16.13 94.5076 16.33 94.5076 16.68C94.5076 17.82 99.3776 17.07 99.3776 20.73Z" fill="white" fill-opacity="0.64"/>
<path d="M110.248 13.8V23.7H107.248V22.77C106.907 23.1817 106.474 23.5074 105.985 23.7211C105.495 23.9348 104.962 24.0303 104.428 24C102.428 24 100.718 22.57 100.718 19.9V13.8H103.718V19.45C103.694 19.6862 103.722 19.9247 103.8 20.1491C103.878 20.3734 104.003 20.5782 104.167 20.7494C104.332 20.9205 104.532 21.0539 104.753 21.1404C104.974 21.2268 105.211 21.2642 105.448 21.25C106.528 21.25 107.288 20.61 107.288 19.25V13.8H110.248Z" fill="white" fill-opacity="0.64"/>
<path d="M127.248 17.62V23.7H124.248V17.88C124.248 16.88 123.778 16.26 122.828 16.26C121.878 16.26 121.278 16.95 121.278 18.12V23.7H118.278V17.88C118.278 16.88 117.808 16.26 116.858 16.26C115.908 16.26 115.308 16.95 115.308 18.12V23.7H112.308V13.8H115.308V14.71C115.619 14.308 116.024 13.9896 116.489 13.7836C116.953 13.5776 117.462 13.4904 117.968 13.53C118.475 13.5035 118.981 13.6095 119.435 13.8374C119.889 14.0653 120.276 14.4074 120.558 14.83C120.888 14.3884 121.324 14.0376 121.826 13.8103C122.327 13.5829 122.879 13.4865 123.428 13.53C125.768 13.53 127.248 15.15 127.248 17.62Z" fill="white" fill-opacity="0.64"/>
<path d="M129.768 13.74C130.983 13.74 131.968 12.755 131.968 11.54C131.968 10.325 130.983 9.33997 129.768 9.33997C128.553 9.33997 127.568 10.325 127.568 11.54C127.568 12.755 128.553 13.74 129.768 13.74Z" fill="white" fill-opacity="0.64"/>
</svg>
