<svg width="51" height="32" viewBox="0 0 51 32" fill="none" xmlns="http://www.w3.org/2000/svg">
<g clip-path="url(#clip0_1_1576)">
<path d="M4.06362 3.388C4.27162 2.4008 5.25562 1.6 6.25802 1.6H11.7076L7.17562 23.0584H1.72602C0.722823 23.0584 0.0780226 22.2584 0.286823 21.2704L4.06362 3.388ZM22.2292 3.388C22.438 2.4008 23.4212 1.6 24.4236 1.6H29.8732L25.3412 23.0584H19.8916C18.8884 23.0584 18.2436 22.2584 18.4524 21.2704L22.2292 3.388ZM58.5612 3.388C58.7692 2.4008 59.7516 1.6 60.7556 1.6H66.2052L61.6732 23.0584H56.2228C55.2196 23.0584 54.5756 22.2584 54.7844 21.2704L58.5612 3.388ZM31.69 1.6H37.1396C38.1428 1.6 38.7876 2.4 38.5788 3.388L34.802 21.2704C34.594 22.2584 33.6108 23.0584 32.6076 23.0584H27.158L31.69 1.6ZM68.022 1.6H73.4716C74.4748 1.6 75.1196 2.4 74.9108 3.388L71.1332 21.2704C70.9252 22.2584 69.9428 23.0584 68.9396 23.0584H63.4892L68.022 1.6ZM40.3956 3.388C40.6036 2.4008 41.586 1.6 42.5892 1.6H48.0396L43.5068 23.0584H38.0572C37.054 23.0584 36.4092 22.2584 36.6188 21.2704L40.3948 3.388H40.3956ZM49.8556 1.6H55.306C56.3092 1.6 56.9532 2.4 56.7444 3.388L51.0796 30.212C50.87 31.1992 49.8876 32 48.8844 32H43.434L49.8556 1.6ZM10.5028 15.9056H17.7692L16.6364 21.2704C16.4276 22.2584 15.4444 23.0584 14.442 23.0584H8.99162L10.502 15.9064L10.5028 15.9056ZM35.8636 24.8472H43.1292L41.6188 32H36.1692C35.1652 32 34.5212 31.2 34.73 30.212L35.8636 24.8472ZM55.5868 26.5104L54.6668 30.8672C54.6268 31.0544 54.5644 31.1056 54.374 31.1056H53.9556C53.7652 31.1056 53.7236 31.0544 53.7636 30.8672L54.6836 26.5104C54.7236 26.324 54.786 26.272 54.9764 26.272H55.3948C55.5852 26.272 55.6268 26.324 55.5868 26.5104ZM56.7964 29.4496H56.7108C56.6196 29.4496 56.5876 29.4752 56.5692 29.5656L56.294 30.8672C56.254 31.0544 56.1908 31.1056 56.0012 31.1056H55.582C55.3924 31.1056 55.3508 31.0544 55.39 30.8672L56.31 26.5104C56.35 26.324 56.414 26.272 56.6036 26.272H57.4676C58.4628 26.272 58.8396 26.6264 58.6556 27.496L58.502 28.2248C58.318 29.0952 57.7916 29.4496 56.7964 29.4496ZM57.0492 27.2904L56.8092 28.4312C56.7892 28.5216 56.81 28.5472 56.902 28.5472H57.0396C57.3596 28.5472 57.5316 28.4184 57.6012 28.0896L57.6972 27.632C57.7668 27.304 57.65 27.1744 57.3292 27.1744H57.1916C57.1004 27.1744 57.0684 27.2 57.0492 27.2904ZM60.0396 27.9928L60.7196 28.7408C61.0764 29.1272 61.126 29.3592 61.0348 29.7912L61.0108 29.9072C60.8388 30.7192 60.4292 31.1704 59.4796 31.1704C58.5308 31.1704 58.2964 30.7904 58.5156 29.752L58.5428 29.624C58.5828 29.4368 58.646 29.3848 58.8356 29.3848H59.2804C59.4708 29.3848 59.5124 29.4368 59.4724 29.6232L59.4124 29.9072C59.358 30.1648 59.4412 30.268 59.67 30.268C59.8996 30.268 60.0244 30.172 60.074 29.94L60.0996 29.8168C60.138 29.636 60.1172 29.5464 59.9204 29.3336L59.2804 28.644C58.922 28.264 58.8764 28.044 58.9676 27.612L58.9972 27.4712C59.1692 26.6592 59.5788 26.2072 60.5276 26.2072C61.4772 26.2072 61.7116 26.588 61.4924 27.6256L61.4652 27.7544C61.4252 27.9416 61.362 27.9928 61.1724 27.9928H60.7268C60.5372 27.9928 60.4956 27.9416 60.5348 27.7544L60.5948 27.4712C60.6492 27.2128 60.5668 27.1104 60.3372 27.1104C60.1084 27.1104 59.9828 27.2064 59.934 27.4384L59.9108 27.548C59.8708 27.7352 59.8916 27.8256 60.0396 27.9928ZM63.8732 26.5104C63.9132 26.324 63.9756 26.272 64.166 26.272H64.5844C64.7748 26.272 64.8164 26.324 64.7764 26.5104L64.0916 29.7528C63.8724 30.7904 63.478 31.1704 62.5284 31.1704C61.5796 31.1704 61.3452 30.7904 61.5644 29.752L62.2492 26.5104C62.2892 26.324 62.3524 26.272 62.542 26.272H62.9612C63.1508 26.272 63.1924 26.324 63.1532 26.5104L62.4356 29.9072C62.3812 30.1648 62.4708 30.268 62.7196 30.268C62.9612 30.268 63.1012 30.1648 63.1556 29.9072L63.8732 26.5104ZM66.598 29.1336C66.6004 29.1856 66.6172 29.1976 66.65 29.1976C66.682 29.1976 66.7052 29.1856 66.7292 29.1336L67.8604 26.44C67.9156 26.304 67.9812 26.272 68.1452 26.272H68.7804C68.97 26.272 69.0116 26.324 68.9724 26.5104L68.0524 30.8672C68.0124 31.0544 67.9484 31.1056 67.7588 31.1056H67.458C67.2684 31.1056 67.226 31.0544 67.266 30.8672L67.7076 28.7792C67.7196 28.7216 67.7092 28.708 67.67 28.708C67.6436 28.708 67.614 28.7216 67.598 28.7664L66.6844 30.8936C66.6188 31.048 66.5348 31.1056 66.3452 31.1056H66.1676C65.9708 31.1056 65.9116 31.048 65.9116 30.8936L65.8892 28.7656C65.8852 28.7208 65.8748 28.708 65.842 28.708C65.8028 28.708 65.7868 28.7216 65.7748 28.7792L65.334 30.8672C65.294 31.0544 65.2316 31.1056 65.0412 31.1056H64.7404C64.55 31.1056 64.5084 31.0544 64.5484 30.8672L65.4684 26.5104C65.5084 26.324 65.5716 26.272 65.7612 26.272H66.3052C66.534 26.272 66.6076 26.324 66.606 26.5496L66.5972 29.1336H66.598ZM80.2476 1.6C80.2476 2.484 79.5356 3.2 78.658 3.2C78.4486 3.19937 78.2413 3.15748 78.048 3.07672C77.8548 2.99596 77.6793 2.87792 77.5317 2.72934C77.3841 2.58075 77.2672 2.40454 77.1877 2.21076C77.1082 2.01699 77.0677 1.80945 77.0684 1.6C77.0684 0.716 77.7804 0 78.658 0C79.5356 0 80.2476 0.716 80.2476 1.6Z" fill="white" fill-opacity="0.64"/>
</g>
<defs>
<clipPath id="clip0_1_1576">
<rect width="80" height="32" fill="white" transform="translate(0.247559)"/>
</clipPath>
</defs>
</svg>
