<svg width="187" height="40" viewBox="0 0 187 40" fill="none" xmlns="http://www.w3.org/2000/svg">
<g clip-path="url(#clip0_1_1532)">
<path fill-rule="evenodd" clip-rule="evenodd" d="M19.8605 4.567L22.4975 0L29.9735 4.317L27.3375 8.883C26.8745 9.684 27.5675 10.658 28.4755 10.483L33.5275 9.508L35.1625 17.985L30.1105 18.959C21.9385 20.535 15.6995 11.775 19.8605 4.567Z" fill="white" fill-opacity="0.64"/>
<path fill-rule="evenodd" clip-rule="evenodd" d="M15.2925 35.433L12.6555 40L5.17848 35.684L7.81548 31.117C8.27848 30.316 7.58548 29.342 6.67648 29.517L1.62548 30.491L-0.00952148 22.015L5.04248 21.041C13.2145 19.465 19.4525 28.225 15.2925 35.433Z" fill="white" fill-opacity="0.64"/>
<path fill-rule="evenodd" clip-rule="evenodd" d="M15.5205 4.567L12.8845 0L5.40746 4.317L8.04446 8.883C8.50646 9.684 7.81446 10.658 6.90546 10.483L1.85346 9.508L0.220459 17.985L5.27146 18.959C13.4445 20.535 19.6835 11.775 15.5215 4.567H15.5205Z" fill="white" fill-opacity="0.64"/>
<path fill-rule="evenodd" clip-rule="evenodd" d="M19.6405 35.433L22.2755 40L29.7525 35.684L27.1155 31.117C26.6535 30.316 27.3455 29.342 28.2545 29.517L33.3055 30.491L34.9405 22.015L29.8885 21.041C21.7165 19.465 15.4785 28.225 19.6385 35.433H19.6405Z" fill="white" fill-opacity="0.64"/>
<path d="M163.104 30.153V21.653C163.104 20.475 163.375 19.418 163.917 18.483C164.478 17.529 165.273 16.781 166.302 16.238C167.331 15.696 168.556 15.425 169.977 15.425C170.641 15.4185 171.301 15.5033 171.941 15.677C172.54 15.827 173.082 16.042 173.568 16.322C174.073 16.584 174.503 16.902 174.859 17.276H174.915C175.297 16.8967 175.731 16.5752 176.205 16.322C176.727 16.0352 177.284 15.8183 177.861 15.677C178.511 15.5046 179.181 15.4198 179.853 15.425C181.274 15.425 182.499 15.695 183.528 16.238C184.556 16.781 185.351 17.528 185.912 18.483C186.474 19.418 186.754 20.474 186.754 21.653V30.153H182.377V21.793C182.377 21.326 182.256 20.905 182.013 20.531C181.79 20.1398 181.472 19.8116 181.087 19.577C180.682 19.3303 180.215 19.2038 179.74 19.212C179.235 19.212 178.777 19.334 178.366 19.577C177.982 19.8113 177.663 20.1396 177.44 20.531C177.214 20.9124 177.097 21.3493 177.103 21.793V30.153H172.755V21.793C172.755 21.326 172.633 20.905 172.39 20.531C172.163 20.1342 171.833 19.8049 171.436 19.577C171.031 19.3303 170.564 19.2038 170.089 19.212C169.584 19.212 169.126 19.334 168.715 19.577C168.331 19.8113 168.012 20.1396 167.789 20.531C167.563 20.9126 167.446 21.3493 167.452 21.793V30.153H163.104ZM153.593 30.49C152.116 30.49 150.834 30.21 149.75 29.648C148.684 29.068 147.861 28.292 147.281 27.32C146.701 26.329 146.411 25.234 146.411 24.037V15.761H150.76V23.925C150.76 24.43 150.881 24.898 151.124 25.328C151.367 25.739 151.695 26.076 152.106 26.338C152.536 26.581 153.023 26.703 153.565 26.703C154.089 26.703 154.556 26.581 154.968 26.338C155.398 26.076 155.735 25.739 155.978 25.328C156.221 24.898 156.343 24.43 156.343 23.925V15.761H160.691V24.037C160.691 25.234 160.41 26.329 159.849 27.32C159.288 28.292 158.475 29.069 157.409 29.648C156.361 30.209 155.089 30.49 153.593 30.49ZM132.404 30.153V26.703H139.334C139.521 26.703 139.689 26.665 139.839 26.59C139.988 26.497 140.11 26.375 140.203 26.226C140.295 26.0786 140.344 25.9085 140.344 25.735C140.344 25.5615 140.295 25.3914 140.203 25.244C140.116 25.0998 139.99 24.983 139.839 24.907C139.688 24.8131 139.513 24.7645 139.334 24.767H136.809C135.873 24.767 135.022 24.617 134.256 24.318C133.529 24.0166 132.905 23.5096 132.46 22.859C132.03 22.186 131.815 21.316 131.815 20.25C131.815 19.427 132.011 18.679 132.404 18.006C132.813 17.3351 133.382 16.7758 134.059 16.378C134.767 15.9676 135.571 15.7545 136.388 15.761H143.317V19.24H137.061C136.813 19.235 136.572 19.3256 136.388 19.493C136.306 19.5732 136.242 19.6692 136.198 19.7754C136.155 19.8815 136.133 19.9953 136.135 20.11C136.135 20.372 136.22 20.596 136.388 20.783C136.572 20.9504 136.813 21.041 137.061 21.036H139.53C140.577 21.036 141.475 21.195 142.223 21.512C142.99 21.812 143.579 22.298 143.991 22.972C144.421 23.645 144.636 24.514 144.636 25.58C144.636 26.422 144.421 27.189 143.991 27.88C143.583 28.5688 143.003 29.1395 142.307 29.536C141.615 29.948 140.83 30.153 139.951 30.153H132.404ZM122.93 15.425C124.146 15.425 125.221 15.621 126.156 16.014C127.075 16.3642 127.901 16.9208 128.569 17.641C129.251 18.3466 129.777 19.1879 130.112 20.11C130.467 21.045 130.645 22.083 130.645 23.224C130.645 24.645 130.346 25.908 129.747 27.011C129.194 28.0681 128.359 28.9516 127.335 29.564C126.306 30.181 125.109 30.49 123.744 30.49C123.164 30.49 122.612 30.415 122.088 30.266C121.592 30.1201 121.12 29.9025 120.686 29.62C120.278 29.3428 119.926 28.9906 119.648 28.582H119.563V36.242H115.215V23.223C115.215 21.633 115.533 20.258 116.169 19.099C116.786 17.9582 117.722 17.0219 118.862 16.405C120.022 15.751 121.378 15.424 122.93 15.424V15.425ZM122.93 19.184C122.257 19.184 121.668 19.352 121.163 19.689C120.676 20.007 120.302 20.456 120.04 21.036C119.779 21.596 119.648 22.233 119.648 22.943C119.648 23.654 119.779 24.29 120.04 24.851C120.302 25.412 120.676 25.861 121.163 26.198C121.668 26.516 122.257 26.675 122.93 26.675C123.603 26.675 124.183 26.515 124.669 26.198C125.159 25.8586 125.547 25.3931 125.792 24.851C126.072 24.29 126.212 23.654 126.212 22.943C126.212 22.233 126.072 21.597 125.792 21.036C125.53 20.456 125.156 20.006 124.669 19.689C124.183 19.352 123.603 19.184 122.93 19.184ZM108.607 30.153V15.761H112.984V30.153H108.607ZM110.795 14.134C110.103 14.134 109.505 13.882 109 13.377C108.495 12.872 108.242 12.273 108.242 11.581C108.242 10.889 108.495 10.291 109 9.786C109.505 9.262 110.103 9 110.795 9C111.487 9 112.086 9.262 112.591 9.786C113.096 10.291 113.348 10.889 113.348 11.581C113.348 12.273 113.096 12.871 112.591 13.377C112.086 13.882 111.487 14.134 110.795 14.134ZM99.0955 30.49C97.6185 30.49 96.2905 30.163 95.1115 29.508C93.9549 28.874 92.987 27.9448 92.3065 26.815C91.6335 25.674 91.2965 24.393 91.2965 22.971C91.2965 21.531 91.6335 20.25 92.3065 19.128C92.987 17.9982 93.9549 17.069 95.1115 16.435C96.2905 15.761 97.6185 15.425 99.0955 15.425C100.573 15.425 101.891 15.761 103.051 16.435C104.204 17.0646 105.164 17.9954 105.828 19.128C106.52 20.25 106.866 21.531 106.866 22.971C106.866 24.393 106.52 25.674 105.828 26.815C105.164 27.9476 104.204 28.8784 103.051 29.508C101.873 30.163 100.554 30.49 99.0955 30.49ZM99.0955 26.703C99.7875 26.703 100.386 26.534 100.891 26.198C101.397 25.8614 101.803 25.3965 102.069 24.851C102.35 24.29 102.49 23.654 102.49 22.943C102.49 22.251 102.35 21.625 102.069 21.063C101.803 20.5179 101.396 20.0533 100.891 19.717C100.386 19.38 99.7875 19.212 99.0955 19.212C98.4035 19.212 97.7955 19.38 97.2725 19.717C96.7671 20.0537 96.3602 20.5185 96.0935 21.064C95.8077 21.649 95.6638 22.293 95.6735 22.944C95.6735 23.654 95.8135 24.29 96.0935 24.851C96.3603 25.3964 96.7672 25.8613 97.2725 26.198C97.7955 26.534 98.4035 26.703 99.0955 26.703ZM77.1645 35.849V32.117H84.3455C84.6265 32.117 84.8605 32.024 85.0475 31.837C85.1386 31.7564 85.211 31.6568 85.2594 31.5452C85.3077 31.4335 85.331 31.3126 85.3275 31.191V28.021H85.2435C84.8882 28.4341 84.4831 28.8016 84.0375 29.115C83.6255 29.415 83.1575 29.639 82.6345 29.789C82.0778 29.9454 81.5016 30.0208 80.9235 30.013C79.6515 30.013 78.5105 29.713 77.5005 29.115C76.5095 28.498 75.7235 27.647 75.1435 26.562C74.5835 25.478 74.3025 24.243 74.3025 22.859C74.3025 21.494 74.5925 20.25 75.1725 19.128C75.7705 18.006 76.6405 17.108 77.7815 16.435C78.9215 15.761 80.3155 15.425 81.9615 15.425C83.5325 15.425 84.8885 15.752 86.0295 16.407C87.1752 17.0289 88.112 17.9751 88.7225 19.127C89.3585 20.287 89.6765 21.653 89.6765 23.224V31.64C89.6765 32.93 89.2935 33.95 88.5265 34.698C87.7785 35.465 86.7405 35.848 85.4125 35.848L77.1645 35.849ZM81.9895 26.366C82.6625 26.366 83.2425 26.216 83.7295 25.917C84.21 25.605 84.5973 25.169 84.8505 24.655C85.1164 24.114 85.2511 23.5178 85.2435 22.915C85.2435 22.242 85.1135 21.625 84.8515 21.064C84.5895 20.503 84.2155 20.063 83.7285 19.745C83.2425 19.408 82.6625 19.24 81.9885 19.24C81.3345 19.24 80.7545 19.399 80.2495 19.717C79.7635 20.035 79.3895 20.465 79.1275 21.007C78.8665 21.55 78.7355 22.157 78.7355 22.831C78.7355 23.486 78.8655 24.084 79.1275 24.627C79.3895 25.15 79.7635 25.571 80.2505 25.889C80.7545 26.207 81.3345 26.366 81.9895 26.366ZM65.4635 30.49C63.9865 30.49 62.6585 30.163 61.4805 29.508C60.3235 28.8742 59.3552 27.945 58.6745 26.815C58.0015 25.674 57.6645 24.393 57.6645 22.971C57.6645 21.531 58.0015 20.25 58.6745 19.128C59.3552 17.998 60.3235 17.0688 61.4805 16.435C62.6585 15.761 63.9865 15.425 65.4635 15.425C66.9415 15.425 68.2595 15.761 69.4195 16.435C70.5719 17.0647 71.5317 17.9955 72.1965 19.128C72.8885 20.25 73.2345 21.531 73.2345 22.971C73.2345 24.393 72.8885 25.674 72.1965 26.815C71.5317 27.9475 70.5719 28.8783 69.4195 29.508C68.2415 30.163 66.9225 30.49 65.4635 30.49ZM65.4635 26.703C66.1555 26.703 66.7535 26.534 67.2595 26.198C67.7644 25.8611 68.1709 25.3963 68.4375 24.851C68.7175 24.29 68.8575 23.654 68.8575 22.943C68.8575 22.251 68.7175 21.625 68.4375 21.063C68.1708 20.518 67.7643 20.0535 67.2595 19.717C66.7545 19.38 66.1555 19.212 65.4635 19.212C64.7715 19.212 64.1635 19.38 63.6405 19.717C63.1351 20.0537 62.7282 20.5185 62.4615 21.064C62.1758 21.649 62.0319 22.293 62.0415 22.944C62.0415 23.654 62.1815 24.29 62.4615 24.851C62.7283 25.3964 63.1352 25.8613 63.6405 26.198C64.1635 26.534 64.7715 26.703 65.4635 26.703ZM51.5375 30.153C50.3215 30.153 49.2555 29.883 48.3395 29.34C47.4486 28.8234 46.7124 28.0776 46.2075 27.18C45.7025 26.282 45.4495 25.29 45.4495 24.206V10.515H50.1625V24.542C50.1625 24.992 50.3225 25.384 50.6395 25.721C50.9575 26.057 51.3495 26.226 51.8175 26.226H57.0075V30.153H51.5375Z" fill="white" fill-opacity="0.64"/>
</g>
<defs>
<clipPath id="clip0_1_1532">
<rect width="187" height="40" fill="white" transform="translate(-0.00952148)"/>
</clipPath>
</defs>
</svg>
